# AST/ASF file generated using VICON BodyLanguage
# -----------------------------------------------
:version 1.10
:name VICON
:units
  mass 1.0
  length 0.45
  angle deg
:documentation
   .ast/.asf automatically generated from VICON data using
   VICON BodyBuilder and BodyLanguage model FoxedUp or BRILLIANT.MOD
:root
   order TX TY TZ RX RY RZ
   axis XYZ
   position 0 0 0  
   orientation 0 0 0 
:bonedata
  begin
     id 1 
     name lhipjoint
     direction 0.573633 -0.743009 0.344793 
     length 2.46257 
     axis 0 0 0  XYZ
  end
  begin
     id 2 
     name lfemur
     direction 0.34202 -0.939693 0  
     length 7.3842  
     axis 0 0 20  XYZ
    dof rx ry rz
    limits (-160.0 20.0)
           (-70.0 70.0)
           (-60.0 70.0)
  end
  begin
     id 3 
     name ltibia
     direction 0.34202 -0.939693 0   
     length 7.50407   
     axis 0 0 20   XYZ
    dof rx
    limits (-10.0 170.0)
  end
  begin
     id 4 
     name lfoot
     direction 0.110749 -0.304281 0.946123   
     length 1.95925   
     axis -90 7.62852e-016 20   XYZ
    dof rx rz
    limits (-45.0 90.0)
           (-70.0 20.0)
  end
  begin
     id 5 
     name ltoes
     direction 1.53554e-011 -4.21843e-011 1   
     length 0.978318   
     axis -90 7.62852e-016 20   XYZ
    dof rx
    limits (-90.0 20.0)
  end
  begin
     id 6 
     name rhipjoint
     direction -0.488109 -0.791693 0.367385   
     length 2.31113  
     axis 0 0 0  XYZ 
  end
  begin
     id 7 
     name rfemur
     direction -0.34202 -0.939693 0   
     length 7.40965   
     axis 0 0 -20   XYZ
    dof rx ry rz
    limits (-160.0 20.0)
           (-70.0 70.0)
           (-70.0 60.0)
  end
  begin
     id 8 
     name rtibia
     direction -0.34202 -0.939693 0   
     length 7.55548   
     axis 0 0 -20   XYZ
    dof rx
    limits (-10.0 170.0)
 end
 begin
     id 9 
     name rfoot
     direction -0.127594 -0.350561 0.927808   
     length 2.07199  
     axis -90 -7.62852e-016 -20   XYZ
    dof rx rz
    limits (-45.0 90.0)
           (-20.0 70.0)
  end
  begin
     id 10 
     name rtoes
     direction -1.53542e-011 -4.21909e-011 1   
     length 1.02667   
     axis -90 -7.62852e-016 -20   XYZ
    dof rx
    limits (-90.0 20.0)
  end
  begin
     id 11 
     name lowerback
     direction -0.0103342 0.997298 -0.0727278   
     length 2.02836   
     axis 0 0 0   XYZ
    dof rx ry rz
    limits (-20.0 45.0)
           (-30.0 30.0)
           (-30.0 30.0)
  end
  begin
     id 12 
     name upperback
     direction 0.0171146 0.999786 -0.011606   
     length 2.03179   
     axis 0 0 0   XYZ
    dof rx ry rz
    limits (-20.0 45.0)
           (-30.0 30.0)
           (-30.0 30.0)
  end
  begin
     id 13 
     name thorax
     direction 0.0216927 0.999513 0.0224343   
     length 2.03882   
     axis 0 0 0   XYZ
    dof rx ry rz
    limits (-20.0 45.0)
           (-30.0 30.0)
           (-30.0 30.0)
  end
  begin
     id 14 
     name lowerneck
     direction 0.000989287 0.993907 0.110221   
     length 1.75428   
     axis 0 0 0   XYZ
    dof rx ry rz
    limits (-20.0 45.0)
           (-30.0 30.0)
           (-30.0 30.0)
  end
  begin
     id 15 
     name upperneck
     direction -0.0172474 0.994813 -0.100253   
     length 1.77058   
     axis 0 0 0   XYZ
    dof rx ry rz
    limits (-20.0 45.0)
           (-30.0 30.0)
           (-30.0 30.0)
  end
  begin
     id 16
     name head
     direction -0.00486455 0.99894 -0.0457663  
     length 1.77427  
     axis 0 0 0   XYZ
    dof rx ry rz
    limits (-20.0 45.0)
           (-30.0 30.0)
           (-30.0 30.0)
  end
  begin
     id 17 
     name lclavicle
     direction 0.927314 0.333734 -0.169441  
     length 3.97584  
     axis 0 0 0   XYZ
    dof ry rz
    limits (-20.0 10.0)
           (0.0 20.0)
  end
  begin
     id 18 
     name lhumerus
     direction 1 -4.48965e-011 -3.25313e-028   
     length 4.76468   
     axis 180 -30 -90   XYZ
    dof rx ry rz
    limits (-60.0 90.0)
           (-90.0 90.0)
           (-90.0 90.0)
  end
  begin
     id 19
     name lradius
     direction 1 -4.48969e-011 -2.8465e-028   
     length 3.52712   
     axis -180 -30 -90   XYZ
    dof rx
    limits (-10.0 170.0)
  end
  begin
     id 20
     name lwrist
     direction 1 -4.4896e-011 -7.78665e-028   
     length 1.76356   
     axis 1.91374e-015 90 90   XYZ
    dof ry
    limits (-180.0 0.0)
 end
  begin
     id 21 
     name lhand
     direction 1 -4.48959e-011 -1.55733e-027   
     length 0.859564   
     axis 9.9371e-016 90 90   XYZ
    dof rx rz
    limits (-90.0 90.0)
           (-45.0 45.0)
  end
  begin
     id 22 
     name lfingers
     direction 1 -4.48965e-011 -3.11466e-027   
     length 0.693002   
     axis 1.98742e-015 90 90   XYZ
    dof rx
    limits (0.0 90.0)
  end
  begin
     id 23
     name lthumb
     direction 0.707107 -6.34948e-011 0.707107   
     length 0.995017   
     axis -90 45 2.85299e-015   XYZ
    dof rx rz
    limits (-45.0 45.0)
           (-45.0 45.0)
  end
  begin
     id 24 
     name rclavicle
     direction -0.899388 0.348209 -0.264294   
     length 3.68366  
     axis 0 0 0   XYZ 
    dof ry rz
    limits (-10.0 20.0)
           (-20.0 0.0)
  end
  begin
     id 25 
     name rhumerus
     direction -1 -4.48965e-011 -3.01536e-027  
     length 4.90577   
     axis 180 30 90   XYZ
    dof rx ry rz
    limits (-90.0 60.0)
           (-90.0 90.0)
           (-90.0 90.0)
  end
  begin
     id 26 
     name rradius
     direction -1 -4.48966e-011 3.93291e-027   
     length 3.42692   
     axis -180 30 90   XYZ
    dof rx
    limits (-10.0 170.0)
  end
  begin
     id 27 
     name rwrist
     direction -1 -4.48969e-011 -7.78665e-028   
     length 1.71346   
     axis 1.91374e-015 -90 -90   XYZ
    dof ry
    limits (-180.0 0.0)
  end
  begin
     id 28
     name rhand
     direction -1 -4.48967e-011 -1.55733e-027   
     length 0.740957   
     axis 9.9371e-016 -90 -90   XYZ
    dof rx rz
    limits (-90.0 90.0)
           (-45.0 45.0)
  end
  begin
     id 29
     name rfingers
     direction -1 -4.48949e-011 -3.11466e-027   
     length 0.597378   
     axis 1.98742e-015 -90 -90   XYZ
    dof rx
    limits (0.0 90.0)
  end
  begin
     id 30
     name rthumb
     direction -0.707107 -6.34931e-011 0.707107   
     length 0.857719   
     axis -90 -45 -2.85299e-015   XYZ
    dof rx rz
    limits (-45.0 45.0)
           (-45.0 45.0)
  end
:hierarchy
  begin
    root lhipjoint rhipjoint lowerback
    lhipjoint lfemur
    lfemur ltibia
    ltibia lfoot
    lfoot ltoes
    rhipjoint rfemur
    rfemur rtibia
    rtibia rfoot
    rfoot rtoes
    lowerback upperback
    upperback thorax
    thorax lowerneck lclavicle rclavicle
    lowerneck upperneck
    upperneck head
    lclavicle lhumerus
    lhumerus lradius
    lradius lwrist
    lwrist lhand lthumb
    lhand lfingers
    rclavicle rhumerus
    rhumerus rradius
    rradius rwrist
    rwrist rhand rthumb
    rhand rfingers
  end

#!OML:ASF E:\I on waltz\AllaLogoMonkeySwing\Project 1\Capture day 1\Session 1\Subject1.ASF
:FULLY-SPECIFIED
:DEGREES
258
root -1.03838 17.4939 34.2141 -0.313741 0.0836909 0.226029
lowerback 6.16183 2.30764 -1.77575
upperback -0.00521052 2.97873 0.870457
thorax -3.5958 1.51913 1.6183
lowerneck -11.6504 8.042 3.62081
upperneck 21.924 11.1484 -2.69998
head 9.15919 5.25769 -0.22887
rclavicle -3.21658e-014 3.37934e-015
rhumerus -30.9384 -25.7009 -77.1387
rradius 20.647
rwrist 7.21765
rhand -6.15324 -35.3921
rfingers 7.12502
rthumb 19.685 -64.4154
lclavicle -3.21658e-014 3.37934e-015
lhumerus -38.821 19.9715 82.6195
lradius 34.0504
lwrist -2.63157
lhand -8.13878 -14.9652
lfingers 7.12502
lthumb 17.7753 14.2424
rfemur 4.84738 -3.09633 10.5022
rtibia 15.1875
rfoot -15.5106 -9.70372
rtoes 12.2635
lfemur 2.64055 -0.0269015 -11.7798
ltibia 8.94347
lfoot -8.25746 4.73033
ltoes -41.9176
259
root -1.03168 17.4945 34.2007 -0.334098 -0.0459821 0.141697
lowerback 6.25647 2.23019 -1.72547
upperback -0.0128812 2.87929 0.915484
thorax -3.65238 1.46965 1.64231
lowerneck -11.7523 8.00871 3.6392
upperneck 21.68 11.0899 -2.7485
head 9.0956 5.22811 -0.255704
rclavicle 2.38542e-014 7.95139e-016
rhumerus -30.5688 -25.1755 -77.4615
rradius 20.8275
rwrist 7.27515
rhand -6.11083 -35.3224
rfingers 7.12502
rthumb 19.7258 -64.3416
lclavicle 2.38542e-014 7.95139e-016
lhumerus -38.7474 19.681 82.7285
lradius 33.9172
lwrist -3.3513
lhand -7.57995 -14.8742
lfingers 7.12502
lthumb 18.313 14.2838
rfemur 4.79712 -3.04928 10.5921
rtibia 15.2676
rfoot -15.6027 -9.72367
rtoes 11.2444
lfemur 2.57688 -0.0175119 -11.6999
ltibia 9.07188
lfoot -8.24823 4.82367
ltoes -41.501
260
root -1.02034 17.4944 34.1867 -0.309228 -0.154991 0.191621
lowerback 6.33359 2.15412 -1.80514
upperback -0.0400783 2.77194 0.943711
thorax -3.72446 1.41876 1.72303
lowerneck -11.8255 7.99434 3.66181
upperneck 21.4581 11.0662 -2.82543
head 9.03772 5.2125 -0.289048
rclavicle 6.23687e-015 1.39149e-015
rhumerus -30.2858 -24.4599 -77.7408
rradius 21.1811
rwrist 7.336
rhand -6.11461 -35.3104
rfingers 7.12502
rthumb 19.7222 -64.3299
lclavicle 6.23687e-015 1.39149e-015
lhumerus -38.6532 19.5468 82.7948
lradius 33.6886
lwrist -4.62865
lhand -6.96487 -14.7806
lfingers 7.12502
lthumb 18.9046 14.3208
rfemur 4.66572 -3.06217 10.4725
rtibia 15.3275
rfoot -15.5729 -9.65661
rtoes 10.9493
lfemur 2.45108 -0.0310158 -11.826
ltibia 9.22231
lfoot -8.23706 4.94807
ltoes -41.3286
261
root -1.00763 17.4955 34.1738 -0.213885 -0.254721 0.308186
lowerback 6.32457 2.10247 -1.91452
upperback -0.081249 2.69509 0.941381
thorax -3.7636 1.38331 1.78893
lowerneck -11.9132 7.96958 3.6079
upperneck 21.1787 11.0295 -2.85579
head 8.95474 5.19052 -0.297272
rclavicle -3.78933e-015 -1.76918e-014
rhumerus -30.1233 -23.7075 -77.9751
rradius 21.6977
rwrist 7.30217
rhand -5.97928 -35.3816
rfingers 7.12502
rthumb 19.8523 -64.3877
lclavicle -3.78933e-015 -1.76918e-014
lhumerus -38.5302 19.5008 82.7975
lradius 33.4014
lwrist -6.13816
lhand -6.3192 -14.6073
lfingers 7.12502
lthumb 19.5255 14.4323
rfemur 4.41483 -3.12653 10.2426
rtibia 15.3799
rfoot -15.4616 -9.46409
rtoes 11.4987
lfemur 2.24705 -0.0539395 -12.0563
ltibia 9.37932
lfoot -8.2369 5.09628
ltoes -41.3329
262
root -0.998498 17.4979 34.1647 -0.132128 -0.411745 0.257132
lowerback 6.28691 2.07496 -1.87058
upperback -0.120891 2.66353 0.972816
thorax -3.78152 1.36767 1.80044
lowerneck -12.0663 7.90581 3.54871
upperneck 21.0253 10.9506 -2.90859
head 8.92695 5.14279 -0.311664
rclavicle 2.81777e-014 1.49089e-014
rhumerus -30.1346 -22.9296 -78.2082
rradius 22.4011
rwrist 6.94084
rhand -6.13018 -35.4173
rfingers 7.12502
rthumb 19.7072 -64.4383
lclavicle 2.81777e-014 1.49089e-014
lhumerus -38.4604 19.4519 82.7498
lradius 33.1636
lwrist -7.39615
lhand -5.72965 -14.3745
lfingers 7.12502
lthumb 20.0922 14.6065
rfemur 4.17323 -3.0821 10.2617
rtibia 15.4733
rfoot -15.4347 -9.37359
rtoes 11.6727
lfemur 2.10983 0.0133417 -12.0292
ltibia 9.45585
lfoot -8.19801 5.18917
ltoes -41.4058
